<svg width="42" height="32" viewBox="0 0 42 32" fill="none" xmlns="http://www.w3.org/2000/svg">
<path opacity="0.15" fill-rule="evenodd" clip-rule="evenodd" d="M1.5 6.89825C1.5 5.79369 2.39543 4.89825 3.5 4.89825H38.3C39.4046 4.89825 40.3 5.79369 40.3 6.89825V27.8871C40.3 28.9917 39.4046 29.8871 38.3 29.8871H24.2108C28.4393 28.5311 31.5 24.5686 31.5 19.8916C31.5 14.0952 26.799 9.39625 21 9.39625C15.201 9.39625 10.5 14.0952 10.5 19.8916C10.5 24.5686 13.5607 28.5311 17.7892 29.8871H3.5C2.39543 29.8871 1.5 28.9917 1.5 27.8871V6.89825ZM21 24.8894C23.7614 24.8894 26 22.6518 26 19.8916C26 17.1314 23.7614 14.8938 21 14.8938C18.2386 14.8938 16 17.1314 16 19.8916C16 22.6518 18.2386 24.8894 21 24.8894Z" fill="url(#paint0_linear)"/>
<path d="M2.04688 21.5655C2.04688 21.8199 1.84039 22.0263 1.58594 22.0263C1.33149 22.0263 1.125 21.8199 1.125 21.5655V19.1966C1.125 18.942 1.33145 18.7359 1.58594 18.7359C1.84043 18.7359 2.04688 18.942 2.04688 19.1966V21.5655Z" fill="url(#paint1_linear)" stroke="url(#paint2_linear)" stroke-width="0.25"/>
<path d="M13.2415 19.9785C13.2415 15.7022 16.7219 12.223 21.0001 12.223C25.2783 12.223 28.7587 15.7022 28.7587 19.9785C28.7587 24.2545 25.2783 27.7336 21.0001 27.7336C16.7219 27.7336 13.2415 24.2545 13.2415 19.9785ZM14.1633 19.9785C14.1633 23.7467 17.2302 26.8121 21.0001 26.8121C24.77 26.8121 27.8368 23.7467 27.8368 19.9785C27.8368 16.2103 24.77 13.1445 21.0001 13.1445C17.2302 13.1445 14.1633 16.2103 14.1633 19.9785Z" fill="url(#paint5_linear)" stroke="url(#paint6_linear)" stroke-width="0.25"/>
<path d="M15.6189 19.9785C15.6189 17.0126 18.033 14.5995 20.9999 14.5995C23.9671 14.5995 26.3812 17.0126 26.3812 19.9785C26.3812 22.9443 23.9671 25.3571 20.9999 25.3571C18.0327 25.3571 15.6189 22.9443 15.6189 19.9785ZM16.5408 19.9785C16.5408 22.4363 18.541 24.4356 20.9999 24.4356C23.4588 24.4356 25.4593 22.4363 25.4593 19.9785C25.4593 17.5204 23.4588 15.521 20.9999 15.521C18.541 15.521 16.5408 17.5204 16.5408 19.9785Z" fill="url(#paint7_linear)" stroke="url(#paint8_linear)" stroke-width="0.25"/>
<defs>
<linearGradient id="paint0_linear" x1="3.69867" y1="4.89825" x2="22.5688" y2="37.2522" gradientUnits="userSpaceOnUse">
<stop offset="0.259336" stop-color="#FFDB6E"/>
<stop offset="1" stop-color="#FFBC5E"/>
</linearGradient>
<linearGradient id="paint1_linear" x1="1.17724" y1="18.7359" x2="2.78931" y2="19.2346" gradientUnits="userSpaceOnUse">
<stop offset="0.259336" stop-color="#FFDB6E"/>
<stop offset="1" stop-color="#FFBC5E"/>
</linearGradient>
<linearGradient id="paint2_linear" x1="1.17724" y1="18.7359" x2="2.78931" y2="19.2346" gradientUnits="userSpaceOnUse">
<stop offset="0.259336" stop-color="#FFDB6E"/>
<stop offset="1" stop-color="#FFBC5E"/>
</linearGradient>
<linearGradient id="paint3_linear" x1="3.26667" y1="0.900025" x2="27.6816" y2="36.6089" gradientUnits="userSpaceOnUse">
<stop offset="0.259336" stop-color="#FFDB6E"/>
<stop offset="1" stop-color="#FFBC5E"/>
</linearGradient>
<linearGradient id="paint4_linear" x1="3.26667" y1="0.900025" x2="27.6816" y2="36.6089" gradientUnits="userSpaceOnUse">
<stop offset="0.259336" stop-color="#FFDB6E"/>
<stop offset="1" stop-color="#FFBC5E"/>
</linearGradient>
<linearGradient id="paint5_linear" x1="14.1208" y1="12.223" x2="27.511" y2="27.0155" gradientUnits="userSpaceOnUse">
<stop offset="0.259336" stop-color="#FFDB6E"/>
<stop offset="1" stop-color="#FFBC5E"/>
</linearGradient>
<linearGradient id="paint6_linear" x1="14.1208" y1="12.223" x2="27.511" y2="27.0155" gradientUnits="userSpaceOnUse">
<stop offset="0.259336" stop-color="#FFDB6E"/>
<stop offset="1" stop-color="#FFBC5E"/>
</linearGradient>
<linearGradient id="paint7_linear" x1="16.2288" y1="14.5995" x2="25.5157" y2="24.8592" gradientUnits="userSpaceOnUse">
<stop offset="0.259336" stop-color="#FFDB6E"/>
<stop offset="1" stop-color="#FFBC5E"/>
</linearGradient>
<linearGradient id="paint8_linear" x1="16.2288" y1="14.5995" x2="25.5157" y2="24.8592" gradientUnits="userSpaceOnUse">
<stop offset="0.259336" stop-color="#FFDB6E"/>
<stop offset="1" stop-color="#FFBC5E"/>
</linearGradient>
</defs>
</svg>
